<svg width="271" height="85" viewBox="0 0 271 85" fill="none" xmlns="http://www.w3.org/2000/svg">
<g clip-path="url(#clip0_7_2)">
<path d="M97 76.5H2.5V2.5H268.5V76.5H176" stroke="#000118" stroke-width="5"/>
<path d="M50.6 38.8C50.6 41.8 49.4 44.4 47.1 46.5C44.8 48.6 42.1 49.6 38.9 49.6C37 49.6 34.8 49 32.1 47.9C31.4 47.6 30.9 47.4 30.5 47.4C30.1 47.4 29.8 47.9 29.7 48.9C29.7 49.4 29.4 49.7 29 49.7C28.7 49.7 28.5 49.5 28.5 49.1C28.5 48.8 28.5 48.6 28.6 48.5C28.9 46.4 29 44.4 29 42.6C29 42.3 29 41.3 28.9 39.7C28.9 39.5 28.8 39.2 28.8 38.9C28.8 38.4 29 38.1 29.4 38.1C29.7 38.1 30 38.5 30.1 39.4C31 45.6 34 48.7 39 48.7C41.1 48.7 42.8 48.1 43.9 46.9C45.1 45.7 45.7 44 45.7 41.8C45.7 39.8 45.1 38.2 44 36.8C42.9 35.4 40.9 34 38.2 32.7C34.9 31.1 32.6 29.5 31.3 27.9C30 26.4 29.4 24.5 29.4 22.2C29.4 19.3 30.3 16.9 32.2 15C34.1 13.1 36.5 12.2 39.3 12.2C40.5 12.2 42.1 12.6 44.2 13.4C44.9 13.7 45.5 13.8 45.8 13.8C46.2 13.8 46.4 13.7 46.5 13.6C46.6 13.5 46.8 13.1 46.9 12.5C47 12.2 47.2 12 47.5 12C47.8 12 48 12.2 48 12.6C48 12.9 48 13.1 47.9 13.2C47.8 14 47.7 15.1 47.7 16.2C47.7 17.9 47.8 19.2 48 20.2L48.1 21C48.1 21.4 48 21.6 47.6 21.6C47.2 21.6 47 21.2 46.8 20.4C46.4 18.3 45.5 16.6 44.1 15.3C42.7 13.9 41.1 13.2 39.3 13.2C37.6 13.2 36.2 13.8 35.1 14.9C34.1 16 33.6 17.5 33.6 19.5C33.6 21.7 34.4 23.5 35.9 24.9C36.7 25.7 38.6 26.8 41.4 28.2C44.7 29.8 47 31.5 48.5 33.2C49.9 34.7 50.6 36.6 50.6 38.8ZM75.5 41.2C75.5 41.3 75.5 41.6 75.4 42.1C75.3 44 75.2 45.3 75.2 46.1C75.2 46.6 75.3 47.4 75.4 48.4V48.8C75.4 49.1 75.3 49.3 75 49.3C74.7 49.3 74.4 49 74.2 48.4L73.7 47.4C73.7 47.3 73.6 47.2 73.5 47.1C71.9 48.7 69.8 49.5 67 49.5C63.5 49.5 60.5 48.3 58.2 46C55.9 43.6 54.7 40.6 54.7 37.1C54.7 33.5 55.8 30.6 58 28.3C60.2 26 62.9 24.8 66.3 24.8C68.9 24.8 71.1 25.5 72.9 26.8C73 27 73.1 27 73.3 27C73.5 27 73.6 26.8 73.8 26.3C74 25.5 74.3 25.1 74.7 25.1C74.9 25.1 75.1 25.2 75.1 25.5C75.1 25.5 75.1 25.7 75 26C74.8 27.2 74.7 29 74.6 31.3C74.6 32.8 74.4 33.5 74 33.5C73.7 33.5 73.5 33.2 73.4 32.7C73.1 30.8 72.6 29.4 72.1 28.5C71 26.5 69.1 25.5 66.6 25.5C64.5 25.5 62.8 26.5 61.5 28.6C60.2 30.7 59.6 33.5 59.6 37C59.6 40.5 60.3 43.3 61.7 45.4C63.1 47.5 65 48.5 67.4 48.5C69.2 48.5 70.7 47.9 71.9 46.7C73.1 45.4 73.9 43.7 74.3 41.5C74.5 40.6 74.7 40.1 75 40.1C75.3 40.2 75.5 40.5 75.5 41.2ZM103.9 48.6C103.9 48.8 103.4 49 102.3 49C102.3 49 102.1 49 101.8 48.9C101.5 48.9 101.2 48.9 100.9 48.9H97C96.4 48.9 96 48.9 95.8 49L95 49.1C94.2 49.1 93.8 49 93.8 48.7C93.8 48.5 94.1 48.4 94.7 48.3C95.9 48.3 96.5 48.1 96.5 47.8C96.6 47.6 96.6 47 96.6 46.1V36.5H86.6V47.3C86.7 47.7 86.8 47.9 87 48C87.2 48.1 87.9 48.2 88.8 48.2C89.2 48.2 89.4 48.3 89.4 48.6C89.4 48.9 89.1 49 88.4 49H87.6C87.1 49 86.4 48.9 85.4 48.9L80.3 49C79.8 49 79.5 48.9 79.5 48.6C79.5 48.3 80 48.2 81 48.2C81.8 48.2 82.2 48 82.3 47.6V28C82.3 27 82.3 26.5 82.2 26.4C82.2 26.1 81.9 26 81.3 26C80.1 26 79.5 25.8 79.5 25.5C79.5 25.3 79.7 25.2 80.2 25.2H80.6C81.3 25.2 82 25.2 82.7 25.3C83.4 25.3 83.9 25.4 84.2 25.4C84.6 25.4 85.3 25.4 86.3 25.3C87.3 25.3 88 25.2 88.1 25.2H88.5C89.1 25.2 89.4 25.3 89.4 25.6C89.4 25.9 88.9 26.1 88 26C87.4 26 87 26.1 86.8 26.2C86.7 26.3 86.6 26.7 86.6 27.2V35.5H96.6V28.3C96.6 27.2 96.6 26.6 96.5 26.4C96.4 26 96.1 25.8 95.5 25.9L94.5 26C94 25.9 93.8 25.8 93.8 25.6C93.8 25.3 94.2 25.2 94.9 25.2H95.9C96.3 25.2 97 25.2 97.9 25.2C98.8 25.2 99.5 25.3 99.9 25.3C100.7 25.3 101.3 25.3 101.6 25.2H102.3C103.1 25.2 103.6 25.3 103.6 25.6C103.6 25.9 103.4 26 102.9 26C102.4 26 102.1 26 101.7 26.1C101.2 26.1 101 26.2 100.9 26.4C100.8 26.6 100.8 27.1 100.8 28.1V46.3C100.8 47.5 100.9 48.2 101.1 48.3C101.3 48.4 101.9 48.5 102.9 48.5C103.7 48.2 103.9 48.4 103.9 48.6ZM130.3 25.6C130.3 25.9 129.9 26 129.1 26C129 26 128.7 26 128.4 25.9H127.8C127.5 25.9 127.3 26 127.2 26.1C127.2 26.2 127.1 26.7 127.1 27.5V46.8C127.1 48.1 127.1 48.8 127 49C127 49.2 126.8 49.3 126.5 49.3C126.1 49.3 124.9 47.8 122.8 44.9C122.6 44.5 122.2 44 121.6 43.3C121.5 43.2 121.3 42.9 121 42.5C119.3 40.2 116.1 35.9 111.5 29.5V46C111.5 47.3 111.7 48 112 48C112.4 48.1 113.1 48.1 114 48.1H114.2C114.6 48.1 114.8 48.2 114.8 48.5C114.8 48.8 114.4 48.9 113.6 48.9C113.5 48.9 112.9 48.9 111.9 48.8C111.4 48.8 110.9 48.7 110.5 48.7C110.2 48.7 109.8 48.7 109.5 48.8C108.8 48.9 108.1 48.9 107.3 48.9C106.7 48.9 106.5 48.8 106.5 48.5C106.5 48.3 106.8 48.1 107.5 48.1H108L108.7 48C109.5 47.9 110 47.8 110 47.5C110 47.4 110.1 46.9 110.1 46V31.8C110.1 29.2 109.9 27.6 109.6 27.1C109.2 26.4 108.4 26.1 107.1 26.1C106.2 26.1 105.8 25.9 105.8 25.6C105.8 25.4 106 25.2 106.5 25.2H106.7L109.6 25.3C109.7 25.3 110 25.3 110.3 25.3C110.6 25.3 111 25.2 111.2 25.2H113.1L125.5 42.2V27.6C125.5 26.7 125.5 26.2 125.4 26.1C125.3 26 125.1 25.9 124.6 25.9C124.1 25.9 123.8 25.9 123.5 26H123.2C122.5 26 122.2 25.9 122.2 25.6C122.2 25.4 122.4 25.3 122.7 25.3C123 25.3 124.2 25.2 126.3 25.2C128.2 25.2 129.3 25.2 129.7 25.3C130.1 25.2 130.3 25.3 130.3 25.6ZM153.2 43.3C153.2 43.3 153.2 43.6 153.1 44C153.1 44.4 153 44.7 153 45L152.9 48C152.9 48.3 152.9 48.7 153 49.2L144.3 49L134.3 49.1C133.6 49.1 133.2 49 133.2 48.7C133.2 48.4 133.4 48.3 133.8 48.3C134.9 48.3 135.6 48.2 135.7 48.1C135.9 47.9 136 47.3 136 46.4V28.4C136 27 135.9 26.2 135.6 26.1C135.4 26 134.7 25.9 133.8 25.9C133.4 25.9 133.2 25.8 133.2 25.5C133.2 25.2 133.4 25.1 133.9 25.1H135.2C135.5 25.1 135.9 25.1 136.2 25.1C136.6 25.1 136.8 25.2 136.8 25.2H138.1C138.3 25.2 139.2 25.2 140.7 25.1C142.3 25.1 144.2 25.1 146.5 25.1H149.6C150.5 25.1 151.3 25.1 151.9 25V25.4L152 26.2C152.1 26.7 152.2 28.3 152.4 30.9C152.4 31.1 152.5 31.3 152.5 31.5C152.5 32 152.4 32.2 152.1 32.2C151.8 32.2 151.6 31.9 151.4 31.2C150.9 28.5 150 27 148.6 26.5C147.8 26.3 146 26.1 143.1 26.1H140.4V35.9H141.7C143.9 35.9 145.3 35.7 145.8 35.4C146.3 35 146.7 34 146.8 32.4C146.9 31.4 147.1 30.9 147.4 30.9C147.8 30.9 147.9 31.2 147.9 31.9C147.9 32.3 147.9 33 147.8 33.8C147.8 34.7 147.7 35.3 147.7 35.8C147.7 38.1 147.8 39.6 147.9 40.5C147.9 40.8 148 41 148 41.2C148 41.8 147.8 42 147.5 42C147.2 42 147 41.6 146.9 40.7C146.7 38.8 146.3 37.7 145.9 37.3C145.4 36.9 144 36.7 141.8 36.7H140.5V48C145.6 48 148.7 47.8 149.6 47.6C151 47.2 151.8 45.5 152.1 42.6C152.1 42.1 152.3 41.8 152.7 41.8C153 41.9 153.2 42.4 153.2 43.3ZM166.4 48.7C166.4 48.9 166.2 49 165.9 49H165.4L164.3 48.9H162.9C162.6 48.9 162.3 48.9 162 48.8C161.7 48.8 161.5 48.8 161.4 48.8C161.1 48.8 160.4 48.8 159.4 48.9C158.5 48.9 157.7 49 157.2 49H157C156.4 49 156.1 48.9 156.1 48.7C156.1 48.4 156.5 48.3 157.3 48.2C158.3 48.1 158.9 48 158.9 47.8C159 47.6 159 46.9 159 45.5V28.7C159 27.3 159 26.5 158.9 26.3C158.8 26.1 158.6 25.9 158.1 25.9L157 25.8H156.5C156.2 25.8 156 25.7 156 25.4C156 25.2 156.2 25 156.7 25C156.7 25 156.8 25 157 25C157.2 25 157.6 25.1 158.2 25.1H162C162.2 25.1 162.5 25.1 162.9 25C163.3 25 163.7 25 164.1 25H165.4C166 25 166.2 25.1 166.2 25.4C166.2 25.6 165.6 25.7 164.4 25.8C163.9 25.8 163.6 25.9 163.5 26.1C163.4 26.2 163.3 26.7 163.3 27.5V47.3C163.3 47.6 163.4 47.9 163.7 48C164 48.1 164.6 48.2 165.6 48.3C166.2 48.4 166.4 48.5 166.4 48.7ZM194.2 37.1C194.2 41.2 192.6 44.4 189.5 46.6C187.2 48.2 184.3 49 180.7 49C180.8 49 180.4 49 179.4 48.9C178.5 48.9 177.1 48.8 175.2 48.8H174C174.1 48.8 173.8 48.8 173.1 48.9C172.4 48.9 171.7 49 171 49H170.5C169.9 49 169.6 48.8 169.6 48.5C169.6 48.2 169.8 48.1 170.2 48.1L171.4 48.2C172.1 48.2 172.5 48 172.6 47.6C172.7 47.5 172.7 46.8 172.7 45.8V29C172.7 27.3 172.7 26.4 172.6 26.3C172.4 26.1 171.8 26 170.8 25.9C170.2 25.9 169.9 25.8 169.9 25.5C169.9 25.2 170.2 25.1 170.8 25.1C170.7 25.1 170.9 25.1 171.3 25.1C171.7 25.1 172.3 25.2 173.2 25.2H176.7C181.3 25.2 184.5 25.5 186.5 26C188.8 26.7 190.7 28 192.1 30.1C193.5 32.1 194.2 34.5 194.2 37.1ZM189.2 36.9C189.2 29.7 186.3 26 180.4 26C178.6 26 177.6 26.1 177.4 26.3C177.2 26.5 177.1 27.1 177.1 28.2V46.7C177.1 47.3 177.2 47.7 177.5 47.9C177.8 48 178.6 48.1 179.8 48.1C186.1 48.2 189.2 44.4 189.2 36.9ZM217.8 43.3C217.8 43.3 217.8 43.6 217.7 44C217.7 44.4 217.6 44.7 217.6 45L217.5 48C217.5 48.3 217.5 48.7 217.6 49.2L208.9 49L198.9 49.1C198.2 49.1 197.8 49 197.8 48.7C197.8 48.4 198 48.3 198.4 48.3C199.5 48.3 200.2 48.2 200.3 48.1C200.5 47.9 200.6 47.3 200.6 46.4V28.4C200.6 27 200.5 26.2 200.2 26.1C200 26 199.3 25.9 198.4 25.9C198 25.9 197.8 25.8 197.8 25.5C197.8 25.2 198 25.1 198.5 25.1H199.8C200.2 25.1 200.5 25.1 200.8 25.1C201.2 25.1 201.4 25.2 201.4 25.2H202.7C202.9 25.2 203.7 25.2 205.3 25.1C206.9 25.1 208.8 25.1 211.1 25.1H214.2C215.1 25.1 215.9 25.1 216.5 25V25.4L216.6 26.2C216.7 26.7 216.8 28.3 217 30.9C217 31.1 217.1 31.3 217.1 31.5C217.1 32 217 32.2 216.7 32.2C216.4 32.2 216.2 31.9 216 31.2C215.5 28.5 214.6 27 213.2 26.5C212.4 26.3 210.6 26.1 207.7 26.1H205V35.9H206.3C208.5 35.9 209.9 35.7 210.4 35.4C210.9 35 211.3 34 211.4 32.4C211.5 31.4 211.7 30.9 212 30.9C212.3 30.9 212.5 31.2 212.5 31.9C212.5 32.3 212.5 33 212.4 33.8C212.4 34.7 212.3 35.3 212.3 35.8C212.3 38.1 212.4 39.6 212.5 40.5C212.5 40.8 212.6 41 212.6 41.2C212.6 41.8 212.4 42 212.1 42C211.8 42 211.6 41.6 211.5 40.7C211.3 38.8 210.9 37.7 210.4 37.3C209.9 36.9 208.5 36.7 206.3 36.7H205V48C210.1 48 213.2 47.8 214.1 47.6C215.5 47.2 216.3 45.5 216.6 42.6C216.6 42.1 216.8 41.8 217.2 41.8C217.6 41.9 217.8 42.4 217.8 43.3ZM242.8 47.7C242.8 48.8 241.8 49.4 239.9 49.4C238 49.4 236.5 48.7 235.3 47.2C234.8 46.6 234.4 45.9 234.3 45.3C234.1 44.7 233.9 43.2 233.7 40.8C233.5 39.3 233 38.2 232.2 37.7C231.4 37.1 230.1 36.8 228.2 36.7V47.5C228.1 48 229 48.2 230.9 48.2C231.3 48.2 231.5 48.3 231.5 48.6C231.5 48.8 231.3 49 230.8 49C230.4 49 230 49 229.7 48.9H227.9C227.1 48.9 226.2 48.9 225.1 49C224 49 223.5 49 223.4 49H222.4C221.4 49 220.9 48.9 220.9 48.6C220.9 48.3 221.1 48.2 221.4 48.2C221.5 48.2 221.7 48.2 221.9 48.3H222.1C223.3 48.3 223.9 48.1 223.9 47.6V26.9C223.9 26.5 223.8 26.3 223.6 26.2C223.4 26.1 222.9 26 222.1 26C221.3 26 220.9 25.9 220.9 25.6C220.9 25.4 221.1 25.2 221.6 25.2H222C222.6 25.3 224.2 25.3 227 25.3C228.2 25.3 229.1 25.3 229.8 25.2C230.5 25.2 231.1 25.1 231.5 25.1C233.8 25.1 235.7 25.6 237.1 26.6C238.5 27.5 239.3 28.8 239.3 30.4C239.3 32.1 238.5 33.5 237 34.6C235.5 35.6 233.4 36.3 230.7 36.4C233.6 36.7 235.6 37.5 236.7 38.7C237.8 39.9 238.5 42.1 238.9 45.3C239.1 47.5 239.8 48.6 240.8 48.6C241 48.6 241.1 48.5 241.1 48.4C241.1 48.4 241 48.3 240.9 48.1C240.8 47.9 240.8 47.7 240.8 47.6C240.8 46.9 241.2 46.6 241.8 46.6C242.4 46.6 242.8 47 242.8 47.7ZM234.5 30.7C234.5 27.6 232.9 26 229.8 26C229 26 228.5 26.1 228.3 26.3C228.1 26.4 228 26.8 228 27.4V36C232.4 35.9 234.5 34.2 234.5 30.7Z" fill="#000118"/>
<path d="M97 60H19V64H97V60Z" fill="#00AEEF"/>
<path d="M254 60H176V64H254V60Z" fill="#00AEEF"/>
<path d="M123.3 80.8C123.3 81.5 123.3 82.6 123.2 84.3H122.8C122.6 84.3 122.3 84.3 121.6 84.2C121 84.1 120.3 84.1 119.5 84.1L102.8 84C102.3 84 102.1 83.9 102.1 83.6C102.1 83.4 102.5 83.3 103.2 83.2C104.2 83.1 104.8 83 105 82.9C105.2 82.7 105.3 82.2 105.3 81.4V58.9C105.3 57.9 105.2 57.3 105 57.2C104.8 57 104.1 57 102.9 57C102.4 57 102.1 56.9 102.1 56.6C102.1 56.4 102.3 56.2 102.6 56.2H103C103.9 56.3 105.6 56.3 108.3 56.3C108.5 56.3 109 56.3 109.7 56.3C110.4 56.2 111 56.2 111.4 56.2H111.8C112.3 56.2 112.5 56.3 112.5 56.6C112.5 56.8 112.4 56.9 112.3 56.9C112.2 56.9 111.7 57 110.9 57C110.1 57 109.7 57.2 109.5 57.4C109.4 57.6 109.3 58.3 109.3 59.5V83.2C110 83.2 111 83.2 112.3 83.2C115.4 83.2 117.6 83 118.9 82.7C120.2 82.4 121.1 81.8 121.5 80.9C122 80 122.2 78.8 122.3 77.3C122.3 77 122.5 76.8 122.8 76.8C123.1 76.8 123.3 77 123.3 77.4V78.4C123.3 78.5 123.3 78.6 123.3 78.8C123.3 79 123.3 79.2 123.3 79.4V80.8ZM143.2 83.8C143.2 84 142.9 84 142.4 84H142.1L139.6 83.9H138.5C138 83.9 137.4 83.9 136.6 83.9H135.4H134.7H134.5C134 83.9 133.8 83.8 133.8 83.6C133.8 83.4 134.3 83.3 135.2 83.2C136.4 83.2 136.9 83 136.9 82.8C136.9 82.7 136.8 82.5 136.7 82C136.6 81.8 136.3 80.9 135.8 79.3L135.3 77.9H129.6C128.5 80.7 128 82.2 128 82.7C128 82.9 128.2 83.1 128.5 83.1H129H129.6H130C130.3 83.1 130.5 83.2 130.5 83.4C130.5 83.6 130.2 83.7 129.7 83.7C129.6 83.7 129.1 83.7 128.3 83.7C127.4 83.6 126.7 83.6 126 83.6H125.6H125.2H124.8H124.7C124.3 83.6 124.1 83.5 124.1 83.4C124.1 83.2 124.3 83.1 124.6 83.1C125.1 83.1 125.4 83 125.6 83C126.1 82.9 126.3 82.8 126.5 82.6C126.7 82.5 127.3 81 128.5 78C129 76.8 129.4 75.7 129.8 74.6C130 74.2 130.1 73.9 130.1 73.8C130.2 73.6 130.3 73.3 130.4 73C130.9 71.9 131.5 70.2 132.3 68L132.9 66.3L133 66C133.2 65.6 133.3 65.4 133.5 65.4C133.6 65.4 133.8 65.8 134 66.5C134.8 68.5 136.9 73.6 140.2 82C140.5 82.8 140.8 83.3 141.1 83.3C141.2 83.3 141.6 83.4 142.4 83.4C143 83.5 143.2 83.6 143.2 83.8ZM135.1 77.5L132.5 70.6C131.9 72.2 131 74.5 129.9 77.5H135.1ZM169.9 66C169.9 66.2 169.6 66.3 168.9 66.3C168.2 66.3 167.8 66.5 167.6 66.9C167.3 67.7 166.9 68.6 166.6 69.5C165.6 72.2 164.1 76.1 162.1 81.3C162 81.7 161.8 82.3 161.5 83.1C161.3 83.8 161.1 84.2 160.7 84.2C160.4 84.2 160.2 83.9 160 83.3C159.8 82.7 159 80.8 157.6 77.6C157.3 76.8 156.9 76 156.5 75.1C154.8 78.8 153.7 81.5 153 83.2C152.8 83.9 152.5 84.2 152.1 84.2C151.9 84.2 151.8 84 151.6 83.7C151.5 83.5 151.4 83.2 151.2 82.6C150.8 81.6 150.2 80.2 149.4 78.2L147.8 74.4C147.6 73.8 147.2 72.9 146.8 71.8C145.9 69.7 145.3 68.2 145 67.2C144.8 66.6 144.5 66.3 144 66.3C142.9 66.2 142.4 66.1 142.4 65.9C142.4 65.7 142.6 65.6 143.1 65.6C143.1 65.6 143.2 65.6 143.5 65.6C143.7 65.6 143.9 65.6 144.1 65.6H145.9C147.9 65.6 148.9 65.6 149.2 65.6H150.1C150.4 65.6 150.6 65.7 150.6 65.9C150.6 66.1 150.3 66.3 149.8 66.3C148.8 66.3 148.2 66.4 148.2 66.6C148.2 66.7 148.3 66.9 148.4 67.2C148.5 67.5 148.6 67.8 148.8 68.3C150.2 72.2 151.7 76 153.4 79.9L155.7 74.6C155.8 74.4 155.9 74.2 156 73.8C155.8 73.2 155.3 72.2 154.7 70.8L153.8 68.7C153.5 68 153.1 67.2 152.8 66.4C152.6 66.2 152.2 66.1 151.4 66.2C151.1 66.2 151 66.1 151 65.9C151 65.7 151.2 65.6 151.5 65.6H151.8C151.9 65.6 152.4 65.6 153.2 65.6C154 65.6 154.8 65.6 155.6 65.6H157.4H159H159.9C160.2 65.6 160.7 65.6 161.3 65.6C161.9 65.6 162.3 65.6 162.5 65.6H162.9C163.4 65.6 163.7 65.7 163.7 65.9C163.7 66.1 163.5 66.2 163.2 66.2H162.7C162 66.2 161.6 66.2 161.3 66.3C160.9 66.5 160.6 66.8 160.3 67.3L160 67.9C159.7 68.5 159.3 69.5 158.7 70.8C158.5 71.3 158.3 71.7 158.2 72C158.4 72.6 158.8 73.6 159.4 74.8C160.1 76.4 160.8 78.1 161.5 79.7C164.7 71.4 166.3 67.1 166.3 66.7C166.3 66.4 166 66.3 165.5 66.3C164.7 66.3 164.2 66.2 164.1 66.1C164.1 66.1 164.1 66 164.1 65.9C164.1 65.7 164.3 65.6 164.7 65.6H165.4C165.6 65.6 166 65.6 166.6 65.6C167.2 65.6 167.8 65.6 168.3 65.6C169.4 65.7 169.9 65.8 169.9 66ZM159.5 66.7C159.5 66.5 158.8 66.3 157.3 66.3C156.5 66.3 156.1 66.4 156.1 66.6C156.1 66.7 156.5 67.7 157.3 69.9C157.4 70 157.5 70.3 157.7 70.9C158.3 69.7 158.6 68.9 158.7 68.6L159.1 67.6C159.3 67 159.5 66.7 159.5 66.7Z" fill="#000118"/>
</g>
<defs>
<clipPath id="clip0_7_2">
<rect width="271" height="84.1" fill="white"/>
</clipPath>
</defs>
</svg>
