<?xml version="1.0" encoding="utf-8"?>
<!-- Generator: Adobe Illustrator 26.1.0, SVG Export Plug-In . SVG Version: 6.00 Build 0)  -->
<svg version="1.1" id="Layer_1" xmlns="http://www.w3.org/2000/svg" xmlns:xlink="http://www.w3.org/1999/xlink" x="0px" y="0px"
	 viewBox="0 0 271 84.1" style="enable-background:new 0 0 271 84.1;" xml:space="preserve">
<style type="text/css">
	.st0{fill:none;stroke:#000118;stroke-width:5;}
	.st1{fill:#000118;}
	.st2{fill:#00AEEF;}
</style>
<polyline class="st0" points="97,76.5 2.5,76.5 2.5,2.5 268.5,2.5 268.5,76.5 176,76.5 "/>
<path class="st1" d="M50.6,38.8c0,3-1.2,5.6-3.5,7.7c-2.3,2.1-5,3.1-8.2,3.1c-1.9,0-4.1-0.6-6.8-1.7c-0.7-0.3-1.2-0.5-1.6-0.5
	s-0.7,0.5-0.8,1.5c0,0.5-0.3,0.8-0.7,0.8c-0.3,0-0.5-0.2-0.5-0.6c0-0.3,0-0.5,0.1-0.6c0.3-2.1,0.4-4.1,0.4-5.9c0-0.3,0-1.3-0.1-2.9
	c0-0.2-0.1-0.5-0.1-0.8c0-0.5,0.2-0.8,0.6-0.8c0.3,0,0.6,0.4,0.7,1.3c0.9,6.2,3.9,9.3,8.9,9.3c2.1,0,3.8-0.6,4.9-1.8
	c1.2-1.2,1.8-2.9,1.8-5.1c0-2-0.6-3.6-1.7-5c-1.1-1.4-3.1-2.8-5.8-4.1c-3.3-1.6-5.6-3.2-6.9-4.8c-1.3-1.5-1.9-3.4-1.9-5.7
	c0-2.9,0.9-5.3,2.8-7.2c1.9-1.9,4.3-2.8,7.1-2.8c1.2,0,2.8,0.4,4.9,1.2c0.7,0.3,1.3,0.4,1.6,0.4c0.4,0,0.6-0.1,0.7-0.2
	c0.1-0.1,0.3-0.5,0.4-1.1c0.1-0.3,0.3-0.5,0.6-0.5s0.5,0.2,0.5,0.6c0,0.3,0,0.5-0.1,0.6c-0.1,0.8-0.2,1.9-0.2,3c0,1.7,0.1,3,0.3,4
	l0.1,0.8c0,0.4-0.1,0.6-0.5,0.6s-0.6-0.4-0.8-1.2c-0.4-2.1-1.3-3.8-2.7-5.1c-1.4-1.4-3-2.1-4.8-2.1c-1.7,0-3.1,0.6-4.2,1.7
	c-1,1.1-1.5,2.6-1.5,4.6c0,2.2,0.8,4,2.3,5.4c0.8,0.8,2.7,1.9,5.5,3.3c3.3,1.6,5.6,3.3,7.1,5C49.9,34.7,50.6,36.6,50.6,38.8z
	 M75.5,41.2c0,0.1,0,0.4-0.1,0.9c-0.1,1.9-0.2,3.2-0.2,4c0,0.5,0.1,1.3,0.2,2.3v0.4c0,0.3-0.1,0.5-0.4,0.5s-0.6-0.3-0.8-0.9l-0.5-1
	c0-0.1-0.1-0.2-0.2-0.3c-1.6,1.6-3.7,2.4-6.5,2.4c-3.5,0-6.5-1.2-8.8-3.5c-2.3-2.4-3.5-5.4-3.5-8.9c0-3.6,1.1-6.5,3.3-8.8
	s4.9-3.5,8.3-3.5c2.6,0,4.8,0.7,6.6,2C73,27,73.1,27,73.3,27c0.2,0,0.3-0.2,0.5-0.7c0.2-0.8,0.5-1.2,0.9-1.2c0.2,0,0.4,0.1,0.4,0.4
	c0,0,0,0.2-0.1,0.5c-0.2,1.2-0.3,3-0.4,5.3c0,1.5-0.2,2.2-0.6,2.2c-0.3,0-0.5-0.3-0.6-0.8c-0.3-1.9-0.8-3.3-1.3-4.2
	c-1.1-2-3-3-5.5-3c-2.1,0-3.8,1-5.1,3.1s-1.9,4.9-1.9,8.4s0.7,6.3,2.1,8.4c1.4,2.1,3.3,3.1,5.7,3.1c1.8,0,3.3-0.6,4.5-1.8
	c1.2-1.3,2-3,2.4-5.2c0.2-0.9,0.4-1.4,0.7-1.4C75.3,40.2,75.5,40.5,75.5,41.2z M103.9,48.6c0,0.2-0.5,0.4-1.6,0.4c0,0-0.2,0-0.5-0.1
	c-0.3,0-0.6,0-0.9,0H97c-0.6,0-1,0-1.2,0.1L95,49.1c-0.8,0-1.2-0.1-1.2-0.4c0-0.2,0.3-0.3,0.9-0.4c1.2,0,1.8-0.2,1.8-0.5
	c0.1-0.2,0.1-0.8,0.1-1.7v-9.6h-10v10.8c0.1,0.4,0.2,0.6,0.4,0.7c0.2,0.1,0.9,0.2,1.8,0.2c0.4,0,0.6,0.1,0.6,0.4s-0.3,0.4-1,0.4
	h-0.8c-0.5,0-1.2-0.1-2.2-0.1L80.3,49c-0.5,0-0.8-0.1-0.8-0.4s0.5-0.4,1.5-0.4c0.8,0,1.2-0.2,1.3-0.6V28c0-1,0-1.5-0.1-1.6
	c0-0.3-0.3-0.4-0.9-0.4c-1.2,0-1.8-0.2-1.8-0.5c0-0.2,0.2-0.3,0.7-0.3h0.4c0.7,0,1.4,0,2.1,0.1c0.7,0,1.2,0.1,1.5,0.1
	c0.4,0,1.1,0,2.1-0.1c1,0,1.7-0.1,1.8-0.1h0.4c0.6,0,0.9,0.1,0.9,0.4S88.9,26.1,88,26c-0.6,0-1,0.1-1.2,0.2c-0.1,0.1-0.2,0.5-0.2,1
	v8.3h10v-7.2c0-1.1,0-1.7-0.1-1.9c-0.1-0.4-0.4-0.6-1-0.5l-1,0.1c-0.5-0.1-0.7-0.2-0.7-0.4c0-0.3,0.4-0.4,1.1-0.4h1c0.4,0,1.1,0,2,0
	s1.6,0.1,2,0.1c0.8,0,1.4,0,1.7-0.1h0.7c0.8,0,1.3,0.1,1.3,0.4s-0.2,0.4-0.7,0.4s-0.8,0-1.2,0.1c-0.5,0-0.7,0.1-0.8,0.3
	c-0.1,0.2-0.1,0.7-0.1,1.7v18.2c0,1.2,0.1,1.9,0.3,2c0.2,0.1,0.8,0.2,1.8,0.2C103.7,48.2,103.9,48.4,103.9,48.6z M130.3,25.6
	c0,0.3-0.4,0.4-1.2,0.4c-0.1,0-0.4,0-0.7-0.1h-0.6c-0.3,0-0.5,0.1-0.6,0.2c0,0.1-0.1,0.6-0.1,1.4v19.3c0,1.3,0,2-0.1,2.2
	c0,0.2-0.2,0.3-0.5,0.3c-0.4,0-1.6-1.5-3.7-4.4c-0.2-0.4-0.6-0.9-1.2-1.6c-0.1-0.1-0.3-0.4-0.6-0.8c-1.7-2.3-4.9-6.6-9.5-13V46
	c0,1.3,0.2,2,0.5,2c0.4,0.1,1.1,0.1,2,0.1h0.2c0.4,0,0.6,0.1,0.6,0.4c0,0.3-0.4,0.4-1.2,0.4c-0.1,0-0.7,0-1.7-0.1
	c-0.5,0-1-0.1-1.4-0.1c-0.3,0-0.7,0-1,0.1c-0.7,0.1-1.4,0.1-2.2,0.1c-0.6,0-0.8-0.1-0.8-0.4c0-0.2,0.3-0.4,1-0.4h0.5l0.7-0.1
	c0.8-0.1,1.3-0.2,1.3-0.5c0-0.1,0.1-0.6,0.1-1.5V31.8c0-2.6-0.2-4.2-0.5-4.7c-0.4-0.7-1.2-1-2.5-1c-0.9,0-1.3-0.2-1.3-0.5
	c0-0.2,0.2-0.4,0.7-0.4h0.2l2.9,0.1c0.1,0,0.4,0,0.7,0c0.3,0,0.7-0.1,0.9-0.1h1.9l12.4,17V27.6c0-0.9,0-1.4-0.1-1.5
	s-0.3-0.2-0.8-0.2s-0.8,0-1.1,0.1h-0.3c-0.7,0-1-0.1-1-0.4c0-0.2,0.2-0.3,0.5-0.3s1.5-0.1,3.6-0.1c1.9,0,3,0,3.4,0.1
	C130.1,25.2,130.3,25.3,130.3,25.6z M153.2,43.3c0,0,0,0.3-0.1,0.7c0,0.4-0.1,0.7-0.1,1l-0.1,3c0,0.3,0,0.7,0.1,1.2l-8.7-0.2
	l-10,0.1c-0.7,0-1.1-0.1-1.1-0.4c0-0.3,0.2-0.4,0.6-0.4c1.1,0,1.8-0.1,1.9-0.2c0.2-0.2,0.3-0.8,0.3-1.7v-18c0-1.4-0.1-2.2-0.4-2.3
	c-0.2-0.1-0.9-0.2-1.8-0.2c-0.4,0-0.6-0.1-0.6-0.4s0.2-0.4,0.7-0.4h1.3c0.3,0,0.7,0,1,0c0.4,0,0.6,0.1,0.6,0.1h1.3
	c0.2,0,1.1,0,2.6-0.1c1.6,0,3.5,0,5.8,0h3.1c0.9,0,1.7,0,2.3-0.1v0.4l0.1,0.8c0.1,0.5,0.2,2.1,0.4,4.7c0,0.2,0.1,0.4,0.1,0.6
	c0,0.5-0.1,0.7-0.4,0.7c-0.3,0-0.5-0.3-0.7-1c-0.5-2.7-1.4-4.2-2.8-4.7c-0.8-0.2-2.6-0.4-5.5-0.4h-2.7v9.8h1.3
	c2.2,0,3.6-0.2,4.1-0.5c0.5-0.4,0.9-1.4,1-3c0.1-1,0.3-1.5,0.6-1.5c0.4,0,0.5,0.3,0.5,1c0,0.4,0,1.1-0.1,1.9c0,0.9-0.1,1.5-0.1,2
	c0,2.3,0.1,3.8,0.2,4.7c0,0.3,0.1,0.5,0.1,0.7c0,0.6-0.2,0.8-0.5,0.8s-0.5-0.4-0.6-1.3c-0.2-1.9-0.6-3-1-3.4
	c-0.5-0.4-1.9-0.6-4.1-0.6h-1.3V48c5.1,0,8.2-0.2,9.1-0.4c1.4-0.4,2.2-2.1,2.5-5c0-0.5,0.2-0.8,0.6-0.8
	C153,41.9,153.2,42.4,153.2,43.3z M166.4,48.7c0,0.2-0.2,0.3-0.5,0.3h-0.5l-1.1-0.1h-1.4c-0.3,0-0.6,0-0.9-0.1c-0.3,0-0.5,0-0.6,0
	c-0.3,0-1,0-2,0.1c-0.9,0-1.7,0.1-2.2,0.1H157c-0.6,0-0.9-0.1-0.9-0.3c0-0.3,0.4-0.4,1.2-0.5c1-0.1,1.6-0.2,1.6-0.4
	c0.1-0.2,0.1-0.9,0.1-2.3V28.7c0-1.4,0-2.2-0.1-2.4c-0.1-0.2-0.3-0.4-0.8-0.4l-1.1-0.1h-0.5c-0.3,0-0.5-0.1-0.5-0.4
	c0-0.2,0.2-0.4,0.7-0.4c0,0,0.1,0,0.3,0s0.6,0.1,1.2,0.1h3.8c0.2,0,0.5,0,0.9-0.1c0.4,0,0.8,0,1.2,0h1.3c0.6,0,0.8,0.1,0.8,0.4
	c0,0.2-0.6,0.3-1.8,0.4c-0.5,0-0.8,0.1-0.9,0.3c-0.1,0.1-0.2,0.6-0.2,1.4v19.8c0,0.3,0.1,0.6,0.4,0.7c0.3,0.1,0.9,0.2,1.9,0.3
	C166.2,48.4,166.4,48.5,166.4,48.7z M194.2,37.1c0,4.1-1.6,7.3-4.7,9.5c-2.3,1.6-5.2,2.4-8.8,2.4c0.1,0-0.3,0-1.3-0.1
	c-0.9,0-2.3-0.1-4.2-0.1H174c0.1,0-0.2,0-0.9,0.1c-0.7,0-1.4,0.1-2.1,0.1h-0.5c-0.6,0-0.9-0.2-0.9-0.5s0.2-0.4,0.6-0.4l1.2,0.1
	c0.7,0,1.1-0.2,1.2-0.6c0.1-0.1,0.1-0.8,0.1-1.8V29c0-1.7,0-2.6-0.1-2.7c-0.2-0.2-0.8-0.3-1.8-0.4c-0.6,0-0.9-0.1-0.9-0.4
	s0.3-0.4,0.9-0.4c-0.1,0,0.1,0,0.5,0s1,0.1,1.9,0.1h3.5c4.6,0,7.8,0.3,9.8,0.8c2.3,0.7,4.2,2,5.6,4.1
	C193.5,32.1,194.2,34.5,194.2,37.1z M189.2,36.9c0-7.2-2.9-10.9-8.8-10.9c-1.8,0-2.8,0.1-3,0.3c-0.2,0.2-0.3,0.8-0.3,1.9v18.5
	c0,0.6,0.1,1,0.4,1.2c0.3,0.1,1.1,0.2,2.3,0.2C186.1,48.2,189.2,44.4,189.2,36.9z M217.8,43.3c0,0,0,0.3-0.1,0.7
	c0,0.4-0.1,0.7-0.1,1l-0.1,3c0,0.3,0,0.7,0.1,1.2l-8.7-0.2l-10,0.1c-0.7,0-1.1-0.1-1.1-0.4c0-0.3,0.2-0.4,0.6-0.4
	c1.1,0,1.8-0.1,1.9-0.2c0.2-0.2,0.3-0.8,0.3-1.7v-18c0-1.4-0.1-2.2-0.4-2.3c-0.2-0.1-0.9-0.2-1.8-0.2c-0.4,0-0.6-0.1-0.6-0.4
	s0.2-0.4,0.7-0.4h1.3c0.4,0,0.7,0,1,0c0.4,0,0.6,0.1,0.6,0.1h1.3c0.2,0,1,0,2.6-0.1c1.6,0,3.5,0,5.8,0h3.1c0.9,0,1.7,0,2.3-0.1v0.4
	l0.1,0.8c0.1,0.5,0.2,2.1,0.4,4.7c0,0.2,0.1,0.4,0.1,0.6c0,0.5-0.1,0.7-0.4,0.7c-0.3,0-0.5-0.3-0.7-1c-0.5-2.7-1.4-4.2-2.8-4.7
	c-0.8-0.2-2.6-0.4-5.5-0.4H205v9.8h1.3c2.2,0,3.6-0.2,4.1-0.5c0.5-0.4,0.9-1.4,1-3c0.1-1,0.3-1.5,0.6-1.5s0.5,0.3,0.5,1
	c0,0.4,0,1.1-0.1,1.9c0,0.9-0.1,1.5-0.1,2c0,2.3,0.1,3.8,0.2,4.7c0,0.3,0.1,0.5,0.1,0.7c0,0.6-0.2,0.8-0.5,0.8s-0.5-0.4-0.6-1.3
	c-0.2-1.9-0.6-3-1.1-3.4s-1.9-0.6-4.1-0.6H205V48c5.1,0,8.2-0.2,9.1-0.4c1.4-0.4,2.2-2.1,2.5-5c0-0.5,0.2-0.8,0.6-0.8
	C217.6,41.9,217.8,42.4,217.8,43.3z M242.8,47.7c0,1.1-1,1.7-2.9,1.7s-3.4-0.7-4.6-2.2c-0.5-0.6-0.9-1.3-1-1.9
	c-0.2-0.6-0.4-2.1-0.6-4.5c-0.2-1.5-0.7-2.6-1.5-3.1c-0.8-0.6-2.1-0.9-4-1v10.8c-0.1,0.5,0.8,0.7,2.7,0.7c0.4,0,0.6,0.1,0.6,0.4
	c0,0.2-0.2,0.4-0.7,0.4c-0.4,0-0.8,0-1.1-0.1h-1.8c-0.8,0-1.7,0-2.8,0.1c-1.1,0-1.6,0-1.7,0h-1c-1,0-1.5-0.1-1.5-0.4
	c0-0.3,0.2-0.4,0.5-0.4c0.1,0,0.3,0,0.5,0.1h0.2c1.2,0,1.8-0.2,1.8-0.7V26.9c0-0.4-0.1-0.6-0.3-0.7s-0.7-0.2-1.5-0.2
	s-1.2-0.1-1.2-0.4c0-0.2,0.2-0.4,0.7-0.4h0.4c0.6,0.1,2.2,0.1,5,0.1c1.2,0,2.1,0,2.8-0.1c0.7,0,1.3-0.1,1.7-0.1
	c2.3,0,4.2,0.5,5.6,1.5c1.4,0.9,2.2,2.2,2.2,3.8c0,1.7-0.8,3.1-2.3,4.2c-1.5,1-3.6,1.7-6.3,1.8c2.9,0.3,4.9,1.1,6,2.3
	s1.8,3.4,2.2,6.6c0.2,2.2,0.9,3.3,1.9,3.3c0.2,0,0.3-0.1,0.3-0.2c0,0-0.1-0.1-0.2-0.3c-0.1-0.2-0.1-0.4-0.1-0.5c0-0.7,0.4-1,1-1
	C242.4,46.6,242.8,47,242.8,47.7z M234.5,30.7c0-3.1-1.6-4.7-4.7-4.7c-0.8,0-1.3,0.1-1.5,0.3c-0.2,0.1-0.3,0.5-0.3,1.1V36
	C232.4,35.9,234.5,34.2,234.5,30.7z"/>
<rect x="19" y="64" class="st2" width="78" height="4"/>
<rect x="176" y="64" class="st2" width="78" height="4"/>
<path class="st1" d="M123.3,80.8c0,0.7,0,1.8-0.1,3.5h-0.4c-0.2,0-0.5,0-1.2-0.1c-0.6-0.1-1.3-0.1-2.1-0.1L102.8,84
	c-0.5,0-0.7-0.1-0.7-0.4c0-0.2,0.4-0.3,1.1-0.4c1-0.1,1.6-0.2,1.8-0.3c0.2-0.2,0.3-0.7,0.3-1.5V58.9c0-1-0.1-1.6-0.3-1.7
	c-0.2-0.2-0.9-0.2-2.1-0.2c-0.5,0-0.8-0.1-0.8-0.4c0-0.2,0.2-0.4,0.5-0.4h0.4c0.9,0.1,2.6,0.1,5.3,0.1c0.2,0,0.7,0,1.4,0
	c0.7-0.1,1.3-0.1,1.7-0.1h0.4c0.5,0,0.7,0.1,0.7,0.4c0,0.2-0.1,0.3-0.2,0.3s-0.6,0.1-1.4,0.1s-1.2,0.2-1.4,0.4
	c-0.1,0.2-0.2,0.9-0.2,2.1v23.7c0.7,0,1.7,0,3,0c3.1,0,5.3-0.2,6.6-0.5c1.3-0.3,2.2-0.9,2.6-1.8c0.5-0.9,0.7-2.1,0.8-3.6
	c0-0.3,0.2-0.5,0.5-0.5s0.5,0.2,0.5,0.6v1c0,0.1,0,0.2,0,0.4c0,0.2,0,0.4,0,0.6C123.3,79.4,123.3,80.8,123.3,80.8z M143.2,83.8
	c0,0.2-0.3,0.2-0.8,0.2h-0.3l-2.5-0.1h-1.1c-0.5,0-1.1,0-1.9,0h-1.2h-0.7h-0.2c-0.5,0-0.7-0.1-0.7-0.3c0-0.2,0.5-0.3,1.4-0.4
	c1.2,0,1.7-0.2,1.7-0.4c0-0.1-0.1-0.3-0.2-0.8c-0.1-0.2-0.4-1.1-0.9-2.7l-0.5-1.4h-5.7c-1.1,2.8-1.6,4.3-1.6,4.8
	c0,0.2,0.2,0.4,0.5,0.4h0.5h0.6h0.4c0.3,0,0.5,0.1,0.5,0.3c0,0.2-0.3,0.3-0.8,0.3c-0.1,0-0.6,0-1.4,0c-0.9-0.1-1.6-0.1-2.3-0.1h-0.4
	h-0.4h-0.4h-0.1c-0.4,0-0.6-0.1-0.6-0.2c0-0.2,0.2-0.3,0.5-0.3c0.5,0,0.8-0.1,1-0.1c0.5-0.1,0.7-0.2,0.9-0.4c0.2-0.1,0.8-1.6,2-4.6
	c0.5-1.2,0.9-2.3,1.3-3.4c0.2-0.4,0.3-0.7,0.3-0.8c0.1-0.2,0.2-0.5,0.3-0.8c0.5-1.1,1.1-2.8,1.9-5l0.6-1.7L133,66
	c0.2-0.4,0.3-0.6,0.5-0.6c0.1,0,0.3,0.4,0.5,1.1c0.8,2,2.9,7.1,6.2,15.5c0.3,0.8,0.6,1.3,0.9,1.3c0.1,0,0.5,0.1,1.3,0.1
	C143,83.5,143.2,83.6,143.2,83.8z M135.1,77.5l-2.6-6.9c-0.6,1.6-1.5,3.9-2.6,6.9H135.1z M169.9,66c0,0.2-0.3,0.3-1,0.3
	s-1.1,0.2-1.3,0.6c-0.3,0.8-0.7,1.7-1,2.6c-1,2.7-2.5,6.6-4.5,11.8c-0.1,0.4-0.3,1-0.6,1.8c-0.2,0.7-0.4,1.1-0.8,1.1
	c-0.3,0-0.5-0.3-0.7-0.9s-1-2.5-2.4-5.7c-0.3-0.8-0.7-1.6-1.1-2.5c-1.7,3.7-2.8,6.4-3.5,8.1c-0.2,0.7-0.5,1-0.9,1
	c-0.2,0-0.3-0.2-0.5-0.5c-0.1-0.2-0.2-0.5-0.4-1.1c-0.4-1-1-2.4-1.8-4.4l-1.6-3.8c-0.2-0.6-0.6-1.5-1-2.6c-0.9-2.1-1.5-3.6-1.8-4.6
	c-0.2-0.6-0.5-0.9-1-0.9c-1.1-0.1-1.6-0.2-1.6-0.4c0-0.2,0.2-0.3,0.7-0.3c0,0,0.1,0,0.4,0c0.2,0,0.4,0,0.6,0h1.8c2,0,3,0,3.3,0h0.9
	c0.3,0,0.5,0.1,0.5,0.3c0,0.2-0.3,0.4-0.8,0.4c-1,0-1.6,0.1-1.6,0.3c0,0.1,0.1,0.3,0.2,0.6c0.1,0.3,0.2,0.6,0.4,1.1
	c1.4,3.9,2.9,7.7,4.6,11.6l2.3-5.3c0.1-0.2,0.2-0.4,0.3-0.8c-0.2-0.6-0.7-1.6-1.3-3l-0.9-2.1c-0.3-0.7-0.7-1.5-1-2.3
	c-0.2-0.2-0.6-0.3-1.4-0.2c-0.3,0-0.4-0.1-0.4-0.3c0-0.2,0.2-0.3,0.5-0.3h0.3c0.1,0,0.6,0,1.4,0c0.8,0,1.6,0,2.4,0h1.8h1.6h0.9
	c0.3,0,0.8,0,1.4,0c0.6,0,1,0,1.2,0h0.4c0.5,0,0.8,0.1,0.8,0.3c0,0.2-0.2,0.3-0.5,0.3h-0.5c-0.7,0-1.1,0-1.4,0.1
	c-0.4,0.2-0.7,0.5-1,1l-0.3,0.6c-0.3,0.6-0.7,1.6-1.3,2.9c-0.2,0.5-0.4,0.9-0.5,1.2c0.2,0.6,0.6,1.6,1.2,2.8
	c0.7,1.6,1.4,3.3,2.1,4.9c3.2-8.3,4.8-12.6,4.8-13c0-0.3-0.3-0.4-0.8-0.4c-0.8,0-1.3-0.1-1.4-0.2c0,0,0-0.1,0-0.2
	c0-0.2,0.2-0.3,0.6-0.3h0.7c0.2,0,0.6,0,1.2,0c0.6,0,1.2,0,1.7,0C169.4,65.7,169.9,65.8,169.9,66z M159.5,66.7
	c0-0.2-0.7-0.4-2.2-0.4c-0.8,0-1.2,0.1-1.2,0.3c0,0.1,0.4,1.1,1.2,3.3c0.1,0.1,0.2,0.4,0.4,1c0.6-1.2,0.9-2,1-2.3l0.4-1
	C159.3,67,159.5,66.7,159.5,66.7z"/>
</svg>
