<?xml version="1.0" encoding="UTF-8"?>
<svg id="Layer_1" xmlns="http://www.w3.org/2000/svg" version="1.1" viewBox="0 0 300 300">
  <defs>
    <style>
      .st0 {
        fill: #00aeef;
      }

      .st1 {
        fill: #000118;
      }
    </style>
    <!-- Mask for text with cutouts -->
    <mask id="textMask">
      <!-- White areas will be visible -->
      <rect width="300" height="300" fill="white"/>
      <!-- Black areas will be transparent (cutouts) -->
      <path fill="black" d="M201.12,127.3c-1.31-.24-1.45-.33-4.4-.24-.19,0-.38.07-.53.18l-.3.21v19.45c0,.46.31.86.74.94,2.28.44,5.24.04,6.91-1.14,3.83-2.71,3.85-11.49,2.16-15.56-.74-1.78-2.4-3.43-4.57-3.84Z"/>
      <path fill="black" d="M246.57,136.37c1.68.13,3.09-.16,4.58-1.04,2.5-1.48,3.03-6.55-.47-7.94-1.14-.45-4.03-.99-4.15.78-.18,2.53,0,5.42.04,8.19Z"/>
      <path fill="black" d="M175.92,167.33c-.52-.12-1.2-.17-1.69-.07-.37.07-.59.48-.45.85l1.28,3.46c.22-.5,1.12-2.24,1.4-3.29.11-.42-.14-.85-.54-.95Z"/>
      <path fill="black" d="M151.63,171.32c-.83,2.17-1.67,4.52-2.37,6.66h4.73l-2.37-6.66Z"/>
    </mask>
  </defs>
  <g>
    <g mask="url(#textMask)">
      <path class="st1" d="M511.58-101.13c.1,0,.18.08.18.18"/>
      <path class="st1" d="M-210.72,400.23c-.1,0-.18-.08-.18-.18V-100.95"/>
      <path class="st1" d="M289.09,101.95s-.04-.09-.08-.09l-270.28-.19c-.63-.31-.52,1.33-.51,1.37,0,0,0,0,0,0,0,.64-.1,5.38-.09,6.05.34,23.64-.27,47.32-.02,70.96,0,.28.22.5.48.5l95.59-.23c.12,0,.54-3.96-.89-3.58-25.61-.04-51.23-.09-76.81-.47-2.37-.04-4.74-.02-7.11,0-1.21.01-2.42.02-3.64.03-.83,0-2.49.27-2.69-.24-.18-.46-.14-2.32-.14-3.22,0-1.12,0-2.27,0-3.39,0-4.39-.3-8.82-.31-13.22,0-5.65-.01-11.3-.02-16.94,0-5.53-.01-11.06-.02-16.59,0-4.05,0-8.09-.01-12.14,0-1.2-.16-3.52.35-4.57.15-.32,2.17-.34,3.57-.34,5.32,0,10.65,0,15.97,0,10.64,0,21.29,0,31.93-.02,10.64-.01,21.28-.03,31.92-.04,10.64-.01,21.28-.02,31.92-.03,10.64,0,21.28,0,31.92.02,7.56.01,15.11.03,22.67.06,24.28.09,48.69.25,72.96.5,6.17.06,12.34-.07,18.51-.01.05,0,.08.04.08.09v69.22c0,.3-.7.56-1,.61-2.59.37-6.48-.08-9.26-.02-18.78.39-37.73.34-56.52.5-8.13.07-16.09-.15-24.19.1-.04,0-.08.03-.08.08-.1.88-.17,2.57,0,3.24,0,.04.04.06.08.06l95.15.34.29-.05c.03-.17.26-.47.26-.56v-77.78Z"/>
      <path class="st1" d="M64.97,121c-.09-2.32.06-4.66,0-6.98,0-.23-.15-.44-.36-.51l-.26-.09s-.09,0-.11.05l-.53,1.43s-.04.06-.08.06c-2.03.07-3.71-1.25-5.78-1.44-5.99-.53-10.4,4.54-9.77,10.79.9,8.91,14.05,8.38,14.84,16.43.2,2.07-.1,4.76-1.53,6.3-2.24,2.43-7.32,1.18-9.96-.6-.55-.37-1.44-2.15-1.56-2.44-.63-1.48-.7-3.5-1.2-4.87-.33-.91-.96-.91-1.08.16-.21,2-.1,4.26-.16,6.36-.03,1.13-.25,2.69-.06,3.91,0,.04.04.08.09.08h.73s.08-.05.08-.09c.01-.42.13-1.17.39-1.62.15-.26.45-.37.73-.29,3.02.94,5.63,2.39,8.9,1.99,6.33-.78,11.55-8.41,7.96-14.8s-14.28-6.61-14.39-14.31c-.05-3.48,2.11-6.29,5.54-6.07,2.41.15,4.9,2.28,5.84,4.54.3.72.89,3.45,1.36,3.56.97.21.34-1.4.33-1.54Z"/>
      <path class="st1" d="M90.66,127.52c-.02.14-.15.24-.28.2-1.2-.35-2.16-1.24-3.48-1.57-9.24-2.32-15.31,5.92-12.99,15.14,1.54,6.12,7.98,9.34,13.64,7.84.48-.13,2.11-1.33,2.79-1.72.15-.09.34-.01.41.16l.59,1.53s.04.05.07.06l.55.03c.15,0,.29-.12.3-.27.1-.99.1-1.8.1-2.74,0-.53.82-5.77-.43-5.54-.03,0-.05.03-.07.05-1.41,2.95-1.24,6.19-4.76,7.51-5.34,2-8.53-2.91-9.07-7.91s.4-14.6,7.3-13.65c3.88.54,4.13,3.62,5.08,6.76.08.25.18,1.02.56.82.79-.41.5-6.48.77-7.96.01-.06-.03-.12-.09-.11-.6.08-.92.78-.99,1.39Z"/>
      <path class="st1" d="M104.92,136.1s-.08-.04-.08-.09v-8.59c0-.78,1.87-.47,2.26-.71l.22-.24-.33-.36h-8.67c-.09,1.1,1.76.53,2.19.73.02,0,.02.05.04.05.47-.05.36,1.29.39,1.72.34,4.99.29,11.7.12,16.67-.01.34.04,2.18,0,2.71,0,.05-.04.08-.08.08l-2.44.02s-.08.04-.08.09l.02.81s.04.09.08.09l8.34.09s.08-.04.09-.09c.04-1.59.12-.62-2.21-1-.04,0-.08-.05-.07-.09l.14-10.85s.04-.09.08-.09h8.84s.08.04.08.09v10.26c0,.28-.18.52-.43.58l-1.76.46s-.06.05-.06.09v.55s.04.09.09.09h8.29s.08-.03.08-.08l.1-.67c0-.05-.03-.1-.08-.1l-1.86-.13s-.06-.02-.07-.05c-.14-.31-.23-.64-.24-.99-.02-6.55-.08-13.84-.08-14.99l.13-5.1c0-.2,1.29.06,1.47,0,.86-.27.96.44.96-.96h-8.7s-.08.04-.08.09v.57s.02.08.06.09c.36.1,1.99-.11,2.18.3,0,.01,0,.03,0,.05v8.8s-.04.09-.08.09h-8.84Z"/>
      <path class="st1" d="M131.04,126.12h-6.3s-.08.04-.08.09v.54s.03.09.08.09c1.41.05,3.16.11,3.47,1.84,1.03,5.66-.04,8.07.27,18.72-.26,1.47-2.44.45-3.37,1.19.35,1.24,2.78.38,3.74.38.27,0,4.74.72,3.92-.5-1.19-.55-3.15.45-3.15-1.55v-16.02c0-.09.1-.12.15-.05l6.48,9.14c1.47,2.07,2.63,3.77,4.1,5.83.64.9,1.48,2.66,2.38,3.3.76.54,1.07,0,1.08-.73.01-.87,0-1.74,0-2.6v-18.57s0-.05.02-.06c.55-.67,1.56-.14,2.27-.36.02,0,.04-.02.05-.04l.36-.64h-6.9s-.08.04-.08.09v.54s.03.09.08.09c.68,0,3.07-.21,3.07.59v14.54c0,.17-.18.26-.31.17-.46-.32-.97-1.06-1.26-1.46-3.44-4.73-6.39-9.96-10.01-14.53-.02-.02-.04-.03-.07-.03Z"/>
      <path class="st1" d="M168.15,126.11l-16.3.05-.02.65c.01.06.07.11.13.11l1.76.02s0,0,0,0l.53.05c-.01,6.02.13,13.47.04,19.37,0,.53-.03,1.1-.13,1.6-.02.12-.13.21-.24.21l-1.92.11c-.11,0-.2-.04-.22.08v.61c-.03.14.02.19.16.19l17.27-.03c.19,0,.35-.16.35-.36l.1-4.72c0-.34,0-.89-.03-1.39-.01-.22-.19-.38-.4-.36l-.31.03s-.04,0-.06.03c-.29.42.07,4.99-2.06,5.7,0,0-.02,0-.03,0l-8.15.07c-.24,0-.54-.23-.54-.49l-.11-10.08s.02-.08.06-.09c1.04-.23,4.18-.1,4.96.3,1.12.57.92,3.09,1.38,4.17.68.07.73-.03.78-.46v-.88l-.03-8.61-.27-.17c-.11,0-.5.1-.53.22-.22.74.07,2.63-.4,3.39-.42.69-1.65.86-1.79.86h-4.08s-.09-.04-.09-.09c0-1.25.1-2.4.1-3.66,0-1.61-.1-3.25,0-4.85.05-.85,1.43-.67,1.93-.67h4.39c1.52,0,2.7,1.47,3.2,2.83.26.69.36,1.58.7,2.18.22.39.78.22.81-.23.07-1.27-.18-3.71-.23-4.97-.01-.42-.35-.76-.75-.76Z"/>
      <path class="st1" d="M183.68,126.12h-8.9c-.11,0-.49.41-.12.6.73.42,2.23-.44,2.48.95l.02,19.27.04,1.24s-.04.09-.08.09l-2.16.07s-.07.03-.08.07l-.19.71s0,.08.04.1c.54.26,3.96.09,4.62.09s3.85.18,4.3-.1c.02-.01.03-.04.03-.07v-.58s-.04-.08-.08-.09l-2.15-.2s-.08-.04-.08-.09l-.18-20.95c.16-.73,2.62.13,2.49-1.11Z"/>
      <path class="st1" d="M207.41,128.88c-1.96-1.71-3.27-2.13-5.86-2.5-4.06-.57-8.37-.12-12.47-.27l.35.63s.04.04.06.04l1.89.24s.04,0,.05.02c.16.19.28,1.07.31,1.34.44,4.49.36,13.01.04,17.58-.03.45.37,1.58.1,1.85-.01.01-.03.02-.05.02l-2.69.37s-.07.04-.07.09v.82s.01.06.04.07c.47.25,4.15.06,4.84.06,3.76-.03,5.93.23,9.77-.91,8.27-2.46,10.18-13.82,3.68-19.47Z"/>
      <path class="st1" d="M233.65,126.22c-5.43,0-11.13-.11-16.55-.11-.05,0-.08.04-.08.09v.54s.04.09.08.09l1.84.04c.14,0,.29,0,.4.09.18.14.2.41.21.65.05,4.39.1,8.77.11,13.16,0,2.41.31,4.79-.03,7.17-.02.13-.11.23-.23.24-.7.07-1.52,0-2.19.06-.04,0-.08.04-.08.09,0,.18-.02.63,0,.66.08.17.17.18.37.18.44,0,.89,0,1.33,0h2.66c1.78,0,3.55,0,5.33,0h7.9s.08-.04.08-.09l.04-5.44-.88-.07c-.15,1.09-.35,2.17-.82,3.13-.17.34-.38.66-.66.87-.18.14-.4.21-.62.23-2.81.36-5.64.5-8.47.42-.05,0-.08-.04-.08-.09v-10c0-.2,0-.42.11-.59.18-.28.56-.3.88-.29,1.2.05,2.4.19,3.58.43.28.06.57.12.76.34.19.2.38.54.44.82.22,1.12.34,2.02.54,3.12.02.11.11.2.21.22.28.04.32.03.47-.05.07-.04.12-.12.12-.21l.02-9.46c0-.31-.09-.77-.38-.79-.23-.01-.48.41-.49.65-.02.95-.07,1.73-.19,2.43s-.17,1.02-.77,1.35c-.32.17-1.22.27-1.58.29-1.22.09-2.42-.03-3.65-.06-.05,0-.08-.04-.08-.09l.08-8.2c0-.25.01-.53.17-.73.2-.24.54-.26.84-.26,1.49,0,2.98,0,4.47,0,.6,0,1.21,0,1.78.22.98.37,1.74,1.18,2.15,2.19s.35,2.1.7,3.53c.02.06.05.08.1.09.37.04.68-.3.69-.69.01-.88-.13-1.59-.13-2.67,0-.88.05-1.93.03-2.93,0-.31-.25-.57-.55-.57Z"/>
      <path class="st1" d="M252.11,126.34s-.79-.02-.81-.02l-11.11-.19s-.08.48-.01.57c.45.29,2.72-.4,2.64,1.53l-.13,19.41c-.08,1.13-2.67.49-2.93.83,0,.17.52.71.56.71h9.12c.29-1.27-1.5-.75-2.32-1-.17-.05-.61-.46-.61-.55v-9.99c0-.73,3.04.11,3.59.49,2.27,1.55,1.96,5.84,2.95,8.18.27.64,1.45,2.49,2.02,2.73.88.37,3.42.41,4.33.12,1.17-.37.54-3.42-1.04-2.14-.17.14-.26.36-.23.59l.07.65c.01.11-.06.2-.16.21-.86.04-1.27-.56-1.52-1.43-.69-2.45-.27-5.10-1.84-7.33-1.39-1.97-2.43-1.90-4.31-2.56-.12-.04-.12-.23.01-.25,3.18-.7,6.89-2.38,6.22-6.58-.35-2.21-2.94-3.52-4.49-3.99Z"/>
      <path class="st1" d="M139.08,184.99v-6.5c0-.23-.18-.42-.4-.42h-.27c.25,7.52-9.05,6.25-11.89,5.98-.28-.03-.51-.3-.51-.6v-24.88c0-.87,2.24-.42,2.71-.71.32-.19.3-.63.12-.68-1.11-.3-4.17-.25-5.6-.27-.59,0-3.96-.34-3.98.46-.03,1.26,2.6-.12,2.82,1.3l-.11,25.02s0,.04-.02.06c-.3.44-1.31.39-2.02.37-.25,0-.46.21-.46.48v.14s.04.09.08.09l19.43.24s.09-.04.09-.09Z"/>
      <path class="st1" d="M143.58,184.37h5.86c.13-.89-1.34-.25-1.9-.7-.09-.08-.12-.21-.09-.33l1.29-4.3c.03-.12.13-.2.24-.22,1.15-.16,4.94-.36,5.3.09.21.26,1.45,3.93,1.46,4.34,0,.02,0,.03-.02.05-.68,1.01-2.31.11-2.9,1.08h8.78c.17-.75-.94-.43-1.54-.63-.32-.11-.64-.23-.82-.57l-6.27-16.36c-.1-.26-.16-.22-.33-.43l-.36-.02-4.89,13.32s0,0,0,0c-.31.67-.32.76-.5,1.17-.92,2.18-.57,2.41-2.76,3.05-.36.11-.66-.26-.55.48Z"/>
      <path class="st1" d="M168.07,166.92c.04-.06,0-.15-.07-.15h-7.53c-.18.79.83.39,1.41.54.27.07.66.34.82.6,0,0,0,.01.01.02l6.67,16.98c1.34.73,1.25-.71,1.51-1.31.1-.22.07-.46.13-.62.33-.82,2.16-6.22,2.6-6.46.01,0,.02,0,.04,0,.38-.05.42.32.55.58.56,1.12,2.74,7.6,3.13,7.87.70.48,1.07-.68,1.31-1.25,2.06-4.93,3.46-10.6,5.51-15.58.11-.28.29-.48.53-.63.71-.43,1.79.08,1.66-.74h-5.18c-.18.94,1.08.21,1.59.58.27.2.24.63.2.94l-4.31,12.06c-.03.08-.13.08-.16,0l-2.94-7.47s0-.05,0-.07c.74-1.40,1.52-5.15,3.06-5.52.63-.15,2.03.32,1.87-.53h-11.94c-.11.74.39.50.77.54.64.07.74-.04.97.60l2.76,6.81s.01.04,0,.06c-.18.62-1.85,5.38-2.38,5.76-.04.03-.1,0-.11-.05l-4.71-12.66c-.15-.84,1.79-.29,2.19-.92Z"/>
    </g>
    <g mask="url(#textMask)">
      <path class="st1" d="M18.77,101.71c-.88.05-.52.46-.56,1.33-.06,1.22-.05,5.41-.04,6.09.34,23.57-.27,47.17-.02,70.75,0,.4.31.71.68.71l95.39-.23c.11,0,.06-2.47.03-3.34,0-.17-.14-.30-.30-.30-25.52-.04-51.94-.04-77.43-.42-4.36-.06-8.72.05-13.08.03l-.40-.02c-.08-.02-.14-.07-.19-.14-.10-.14-.17-.39-.17-.76,0-.67-.02-1.97-.02-2.64v-63.63c0-.61-.37-3.03.25-3.14,1.37-.25,3.61-.31,4.98-.31,1.81,0,3.62,0,5.43,0,10.65,0,21.3,0,31.95,0s21.29-.02,31.94-.04c10.64-.01,21.29-.03,31.93-.03s21.29,0,31.93,0,21.19.01,31.78.07c24.28.09,48.69.25,72.96.5,6.2.06,12.4-.07,18.59,0v69.31c0,.3-.70.56-1,.61-2.59.37-6.48-.08-9.26-.02-18.78.39-37.73.34-56.52.5-8.07.06-16.17-.15-24.21.09-.2,0-.12.11-.12.40,0,.69.02,2.22.02,2.66,0,.16-.04.27.13.27l95.13.4.29-.05c.03-.17.26-.47.26-.56v-77.87l-270.37-.19Z"/>
      <path class="st1" d="M65.03,114.15c0-.29,0-.69-.52-.66h0c-.10-.04-.21.02-.25.12l-.51,1.38c-2.06.10-3.75-1.25-5.84-1.44-5.99-.53-10.4,4.54-9.77,10.79.9,8.91,14.05,8.38,14.84,16.43.2,2.07-.10,4.76-1.53,6.30-2.24,2.43-7.53,1.49-9.96-.60-1.42-1.22-1.44-2.15-1.56-2.44-.63-1.48-.70-3.50-1.20-4.87-.33-.91-.96-.91-1.08.16-.21,2-.15,4.32-.21,6.42-.03,1.04-.17,2.41-.05,3.58.02.20.19.35.39.35h.25c.16,0,.30-.14.31-.31.03-.34.11-.77.25-1.12.16-.42.62-.64,1.03-.51,2.94.94,5.52,2.33,8.73,1.93,6.33-.78,11.55-8.41,7.96-14.80-3.49-6.21-14.28-6.61-14.39-14.31-.05-3.48,2.11-6.29,5.54-6.07,2.41.15,4.90,2.28,5.84,4.54.30.72.89,3.45,1.36,3.56.97.21.37-1.31.33-1.54-.30-2.27.05-4.60.01-6.89Z"/>
      <path class="st1" d="M107.39,126.39v-.24s-9.14.15-9.14.15c.04.69-.10.54.30.54.51,0,1.61.03,1.74,0,.07-.02.29,0,.72,0,0,0,.03.56.03,1.22,0,5.44.08,9.25.08,20.15,0,.07-2.56,0-2.60.02.03.02-.05,1.02.02.99l8.52.05-.02-.97c-2.50-.09-2.30.18-2.28-.56,0,0,.12-10.60.12-10.60-.01-.14,8.92,0,8.96-.05.03,0,.07.07.07.10,0,0,.12,10.97.12,10.97-.07.14-2.17.09-2.37.13-.03,0-.02.11-.02.14.02.03-.07.83.04.79,0,0,8.35,0,8.35,0,.12.04.01-.83.06-.85.01-.14-1.60-.02-1.65-.06-.56-.05-.50-.18-.51-1.10-.05-11.54.05-12.15.05-20.08l1.85-.03c.77-.07.52.31.58-.93,0,0-8.74,0-8.74,0,0,.85-.02.87.04.87,1.31.03,2.15.07,2.15.07,0,0,.02.45.02.46-.04.05.08,8.60-.06,8.59h-8.92c-.13,0-.21-9.22-.14-9.23,2.51-.12,2.57-.08,2.59-.09"/>
      <path class="st1" d="M207.46,128.91c6.50,5.65,4.80,16.99-3.47,19.44-3.84,1.14-6.01.88-9.77.91-.58,0-3.47.16-4.62.06-.26-.02-.46-.26-.46-.54h0c0-.29.21-.53.49-.54l1.37-.08c.47-.03.84-.43.86-.93.01-.37,0-.80,0-1.22.07-4.58.03-10.93-.06-15.79,0-.19-.07-2.47-.16-2.81-.06-.20-.23-.35-.43-.38l-1.74-.10c-.13-.02-.25-.10-.31-.22v-.57c4.39-.02,8.61-.34,12.67.24,2.59.36,3.68.82,5.64,2.53Z"/>
      <path class="st1" d="M251.49,126.18s.51.04.51.05c1.97.28,4.30,1.93,4.65,4.14.67,4.23-3.32,5.84-6.54,6.52-.11.02-.12.18-.01.22,1.95.69,3.23.66,4.64,2.65,1.57,2.22,1.15,4.87,1.84,7.33.23.81.61,1.40,1.37,1.43.18,0,.32-.16.30-.35l-.05-.51c-.02-.22.06-.45.23-.59,1.58-1.27,2.21,1.77,1.04,2.14-.91.29-3.45.25-4.33-.12-.57-.24-1.83-2.16-2.07-2.79-.90-2.41-.63-6.58-2.91-8.13-.55-.37-3.59-1.21-3.59-.49,0,1.15.01,2.29.02,3.44.01,1.82.02,3.64.03,5.46v.87c0,.08,0,.17,0,.25.13.74,1.34.64,1.85.66.26,0,.58,0,.81.16.09.06.39.69.20.69,0,0-9.75-.08-9.75-.08-.04,0-.04-.43.06-.63.26-.34,2.85.29,2.93-.83v-19.51c.04-1.62-1.43-1.24-2.61-1.44-.06-.09-.03-.57.01-.57l11.34.03Z"/>
      <path class="st1" d="M246.53,128.18c-.34,2.47.29,5.50.05,8.08,0,.06.04.12.10.12,1.64.11,3.38-.10,4.71-1.16,2-1.60,2.81-6.23-.62-7.79-1.12-.51-4-.98-4.24.74Z"/>
      <path class="st1" d="M217.40,126.15c-.19,0-.34.16-.34.36s.15.36.33.36l1.65.04c.26,0,.47.23.47.50v.78c.08,6.35.08,6.49.10,13.42,0,.59-.01,5.66-.05,6.38,0,.11-.09.19-.19.20l-2.15.06c-.09,0-.17.08-.16.18v.42c0,.20.16.37.35.37h17.18c.15,0,.26-.13.26-.28l.02-1.78c0-.36.02-2.90.06-4.54,0-.17-.18-.30-.34-.29h-.13c-.16,0-.41-.04-.44.26-.26,2.27.23,4.57-1.64,5.24-.05.02-.68.15-.72.16-2.90.36-5.18.32-8.02.28-.15,0-.26-.13-.26-.28v-10.20c0-.06.02-.13.06-.18.29-.36.76-.31,1.18-.29.69.02,3.55.31,3.93.62.76.61.71,2.96,1.05,4.07.04.12.14.20.25.22l.13.02c.22.04.43-.14.43-.38,0-.41,0-.83,0-1.24v-5.39c.01-.71.01-1.43.02-2.14,0-.32,0-.72-.02-1.06-.02-.26-.46-.43-.67-.15-.46.59.09,2.11-.67,3.89-.10.24-.59.42-1.72.61-.01,0-.03,0-.04,0h-3.92v-8.07c0-.22-.03-.46,0-.69.06-.52.57-.52.98-.52h5.44c1.49,0,2.66,1.52,3.15,2.86.31.83.29,1.73.40,2.61.04.34.21.62.60.59.45-.05.23-.99.25-6.43,0-.32-.24-.57-.53-.57h-16.25Z"/>
      <path class="st1" d="M168.11,126.15h-16.18c-.11,0-.19.09-.19.20v.32c-.03.38.50.25.74.27l1.36.02c.08,0,.31-.01.38.05l.02,1.04s.02,8.12.02,8.15c-.04,9.72,0,2.60,0,8.66,0,.66.03,2.07-.08,2.99-.02.21-.19.37-.39.37l-1.86.05c-.10,0-.19.09-.19.20v.54c0,.11.08.21.19.21h17.41c.11,0,.19-.09.19-.20l.09-4.76c0-.39,0-1.14-.05-1.79,0-.09-.10-.14-.19-.14h-.41c-.08,0-.16.06-.18.15-.24.81-.05,4.97-2.03,5.65-.02,0-.53.02-.55.02l-7.45.09c-.39.02-.72-.31-.72-.73v-9.77c0-.10.06-.18.15-.20,1.12-.21,4.15-.13,4.87.32,1,.62.83,3.07,1.29,4.15.98.14.78-.53.78-1.15l-.03-8.79-.17-.11c-.57-.08-.68.08-.70.41-.04.96.03,2.47-.33,3.14-.20.37-.34.47-1.70.87h-3.98c-.11,0-.19-.09-.19-.20l-.03-8.33c0-.08.06-.36.12-.46l.15-.13c.14-.12.38-.15.57-.15h5.61c1.52,0,2.64,1.51,3.15,2.87.27.71.38,1.56.73,2.27.18.37.71.24.73-.17.04-1.34-.13-3.78-.20-5.15-.02-.42-.36-.75-.76-.75Z"/>
      <path class="st1" d="M125.05,126.15c-.19,0-.34.16-.34.36h0c0,.19.14.36.33.36,1.04.04,2.30.12,2.89.89.18.24.28.99.28.99.48,3.10.39,4.29.40,6.32.03,7.29.02,9.30-.08,12.35-.08,1.11-2.27.50-3.26,1.12-.10.06-.13.22-.04.30.47.46,3.01.27,3.86.28.27,0,5.59.20,3.73-.62-1.19-.55-3.15.45-3.15-1.55v-14.60c0-.54.65-.77.96-.34l12,16.93c.10.13.24.22.40.22l.83.04s0-.02,0-.03c0-1.07,0-1.62,0-2.39,0-1.68,0-3.36,0-5.04v-11.37c0-.63,0-1.26,0-1.89-.01-1.46.03-1.28.88-1.57.39-.14,1.66-.20,1.81-.20,0,0,0-.57,0-.57h-6.98v.64c.14.06,2.19-.28,2.98.46.11.11.17.26.17.42v13.52c0,.52-.61.76-.93.37-.25-.30-.48-.62-.64-.84-3.39-4.67-6.32-9.83-9.87-14.36-.10-.13-.25-.20-.41-.20h-5.83Z"/>
      <path class="st1" d="M167.82,166.81c.18,0,.24.26.08.34-.65.32-2.10,0-1.97.73l4.66,12.53c.05.13.21.16.28.05.61-.86,2.03-4.90,2.24-5.60.01-.04,0-.08,0-.12l-2.74-6.78c-.23-.64-.54-.49-1.02-.63-.36-.11-.83.23-.72-.50h11.94c.17.84-1.24.38-1.87.53-1.54.36-2.43,3.59-3.13,5.25-.02.04-.02.09,0,.14l2.92,7.47c.06.15.26.15.31,0l4.23-11.85c.04-.31.07-.74-.20-.94-.51-.37-1.77.36-1.59-.58h5.18c.12.82-.95.31-1.66.74-.24.15-.43.35-.53.63-2.05,4.98-3.45,10.65-5.51,15.58-.24.57-.62,1.73-1.31,1.25-.39-.27-2.57-6.75-3.13-7.87-.13-.26-.17-.62-.53-.59-.03,0-.05,0-.07.02-.46.35-2.26,5.63-2.58,6.45-.06.16-.28.89-.35,1.12-.19.63-.49,1.24-1.11.98-.21-.09-.38-.25-.47-.47l-6.39-16.67s-.01-.03-.02-.04c-.17-.25-.56-.52-.82-.59-.58-.15-1.59.25-1.41-.54h7.29Z"/>
      <path d="M175.80,167.34c-.47-.09-1.06-.13-1.51-.07-.40.05-.64.49-.49.89l1.12,3.03c.05.14.24.16.30.02.32-.68.93-1.92,1.19-2.78.15-.48-.14-.99-.61-1.08Z"/>
      <path class="st1" d="M139.12,178.28c0-.10-.07-.19-.17-.21l-.39-.06c-.12-.02-.18.31-.17.44.32,7.58-11.38,5.63-11.89,5.58-.11,0-.44-.20-.44-.32v-25.10c0-.87,2.24-.42,2.71-.71.32-.19.25-.66.07-.71-1.11-.30-3.49-.20-5.03-.25-.89-.03-4.50-.27-4.51.48-.02,1.27,2.85.02,2.82,1.30l-.11,24.98s-.01.10-.04.14c-.35.43-1.44.34-2.13.33-.18,0-.32.15-.32.34v.06c0,.18.14.32.31.33l19.09.23c.11,0,.20-.09.20-.21v-6.62Z"/>
      <path class="st1" d="M90.40,127.74c-1.18-.35-2.14-1.23-3.45-1.56-9.24-2.32-15.31,5.92-12.99,15.14,1.54,6.12,7.98,9.34,13.64,7.84.37-.10,1.42-.83,2.20-1.34.45-.30,1.05-.10,1.25.43l.23.59c.08.21.27.35.49.36h0c.30.01.56-.22.59-.54.08-.86.01-1.65.02-2.50,0-.54.89-6.21-.43-5.49-1.43,2.96-1.25,6.23-4.78,7.55-5.34,2-8.53-2.91-9.07-7.91-.57-5.24.40-14.60,7.30-13.65,3.88.54,4.13,3.62,5.08,6.76.08.25.18,1.02.56.82.75-.39.53-5.84.73-7.68.02-.21-.19-.38-.37-.28-.39.23-.61.76-.68,1.25-.02.16-.17.27-.32.22Z"/>
      <path class="st1" d="M174.76,126.17s0-.15,0,.42c.01.11,0,.28.01.34,0,.05.47.02.66.02.81,0,1.06,0,1.41,0s.20-.07.25.35l.12,19.68v1.29s0,0,0,0l-2.26.03-.02.93c.39.01,1.47-.02,2.31.02.69.04,1.57.03,2.12.05.34,0,1.91-.01,2.92,0,.94.01,1.03-.01,1.44.01v-.98s-2.33-.07-2.33-.07l-.05-21.26s.02-.06.06-.06c.22.01,1.16-.01,1.44-.01.77,0,.89.03.91-.08,0-.10.01-.28,0-.69l-8.96.02Z"/>
      <path class="st1" d="M143.63,184.40c-.11-.73.25-.54.62-.60,2.09-.30,2.15-1.37,2.32-1.82.37-.97.58-1.55.87-2.28.39-1.07.78-2.15,1.17-3.22l2.25-6.22c.44-1.22.88-2.44,1.32-3.65.12-.34.58-.37.73-.03.04.09.08.19.11.28l6.26,16.35c.18.33.49.46.82.57.60.20,1.71-.12,1.54.63h-8.78c-.10-.88,1.88-.18,2.72-.89.14-.11.19-.30.15-.48-.22-.93-1.23-3.87-1.41-4.10-.39-.48-4.69-.26-5.54-.10l-1.29,4.51c-.04.13,0,.28.10.36.58.44,2.02-.19,1.89.69h-5.86Z"/>
      <path d="M153.99,177.98l-2.37-6.66c-.83,2.17-1.58,4.43-2.37,6.66h4.73Z"/>
    </g>
  </g>
  <rect class="st0" x="193.47" y="164.72" width="77.86" height="4.34"/>
  <rect class="st0" x="36" y="165.11" width="77.86" height="4.34"/>
</svg>
